<?xml version="1.0" standalone="no"?>
<svg xmlns:xlink="http://www.w3.org/1999/xlink" id="wave" style="transform:rotate(0deg); transition: 0.3s" viewBox="0 0 1440 490" version="1.1" xmlns="http://www.w3.org/2000/svg"><defs><linearGradient id="sw-gradient-0" x1="0" x2="0" y1="1" y2="0"><stop stop-color="rgba(21, 26, 49, 1)" offset="0%"/><stop stop-color="rgba(4, 103, 251, 1)" offset="100%"/></linearGradient></defs><path style="transform:translate(0, 0px); opacity:1" fill="url(#sw-gradient-0)" d="M0,98L12,114.3C24,131,48,163,72,155.2C96,147,120,98,144,130.7C168,163,192,278,216,285.8C240,294,264,196,288,179.7C312,163,336,229,360,228.7C384,229,408,163,432,130.7C456,98,480,98,504,138.8C528,180,552,261,576,285.8C600,310,624,278,648,220.5C672,163,696,82,720,98C744,114,768,229,792,302.2C816,376,840,408,864,367.5C888,327,912,212,936,196C960,180,984,261,1008,302.2C1032,343,1056,343,1080,343C1104,343,1128,343,1152,334.8C1176,327,1200,310,1224,294C1248,278,1272,261,1296,261.3C1320,261,1344,278,1368,236.8C1392,196,1416,98,1440,73.5C1464,49,1488,98,1512,114.3C1536,131,1560,114,1584,138.8C1608,163,1632,229,1656,220.5C1680,212,1704,131,1716,89.8L1728,49L1728,490L1716,490C1704,490,1680,490,1656,490C1632,490,1608,490,1584,490C1560,490,1536,490,1512,490C1488,490,1464,490,1440,490C1416,490,1392,490,1368,490C1344,490,1320,490,1296,490C1272,490,1248,490,1224,490C1200,490,1176,490,1152,490C1128,490,1104,490,1080,490C1056,490,1032,490,1008,490C984,490,960,490,936,490C912,490,888,490,864,490C840,490,816,490,792,490C768,490,744,490,720,490C696,490,672,490,648,490C624,490,600,490,576,490C552,490,528,490,504,490C480,490,456,490,432,490C408,490,384,490,360,490C336,490,312,490,288,490C264,490,240,490,216,490C192,490,168,490,144,490C120,490,96,490,72,490C48,490,24,490,12,490L0,490Z"/><defs><linearGradient id="sw-gradient-1" x1="0" x2="0" y1="1" y2="0"><stop stop-color="rgba(75, 89, 247, 1)" offset="0%"/><stop stop-color="rgba(21, 26, 49, 1)" offset="100%"/></linearGradient></defs><path style="transform:translate(0, 50px); opacity:0.9" fill="url(#sw-gradient-1)" d="M0,245L12,269.5C24,294,48,343,72,302.2C96,261,120,131,144,106.2C168,82,192,163,216,179.7C240,196,264,147,288,106.2C312,65,336,33,360,32.7C384,33,408,65,432,89.8C456,114,480,131,504,155.2C528,180,552,212,576,212.3C600,212,624,180,648,138.8C672,98,696,49,720,49C744,49,768,98,792,171.5C816,245,840,343,864,375.7C888,408,912,376,936,375.7C960,376,984,408,1008,408.3C1032,408,1056,376,1080,375.7C1104,376,1128,408,1152,351.2C1176,294,1200,147,1224,81.7C1248,16,1272,33,1296,98C1320,163,1344,278,1368,343C1392,408,1416,425,1440,375.7C1464,327,1488,212,1512,171.5C1536,131,1560,163,1584,187.8C1608,212,1632,229,1656,261.3C1680,294,1704,343,1716,367.5L1728,392L1728,490L1716,490C1704,490,1680,490,1656,490C1632,490,1608,490,1584,490C1560,490,1536,490,1512,490C1488,490,1464,490,1440,490C1416,490,1392,490,1368,490C1344,490,1320,490,1296,490C1272,490,1248,490,1224,490C1200,490,1176,490,1152,490C1128,490,1104,490,1080,490C1056,490,1032,490,1008,490C984,490,960,490,936,490C912,490,888,490,864,490C840,490,816,490,792,490C768,490,744,490,720,490C696,490,672,490,648,490C624,490,600,490,576,490C552,490,528,490,504,490C480,490,456,490,432,490C408,490,384,490,360,490C336,490,312,490,288,490C264,490,240,490,216,490C192,490,168,490,144,490C120,490,96,490,72,490C48,490,24,490,12,490L0,490Z"/></svg>